# Blender 4.3.1
# www.blender.org
mtllib mcl_lun_star_projectile.mtl
o Circle.001
v 0.280862 0.200000 -0.479159
v 0.909632 0.200000 -0.415415
v 0.514210 0.200000 0.031803
v 0.755750 0.200000 0.654861
v 0.000000 0.200000 0.456326
v 0.280862 -0.000000 -0.479159
v 0.909632 -0.000000 -0.415415
v 0.514210 0.000000 0.031803
v 0.755750 0.000000 0.654861
v 0.000000 0.000000 0.456326
v -0.000000 0.000000 -1.000000
v -0.280862 -0.000000 -0.479159
v -0.909632 -0.000000 -0.415415
v -0.514210 0.000000 0.031803
v -0.755750 -0.000000 0.654861
v -0.000000 0.200000 -1.000000
v -0.280862 0.200000 -0.479159
v -0.909632 0.200000 -0.415415
v -0.514210 0.200000 0.031803
v -0.755750 0.200000 0.654861
v 0.000000 0.200000 -0.479159
v 0.000000 0.000000 -0.479148
vn -0.0000 -1.0000 -0.0000
vn -0.0000 1.0000 -0.0000
vn 0.9324 -0.0000 -0.3615
vn -0.2541 -0.0000 0.9672
vn 0.7492 -0.0000 0.6624
vn 0.8802 -0.0000 -0.4746
vn 0.1009 -0.0000 -0.9949
vn -0.9324 -0.0000 -0.3615
vn 0.2541 -0.0000 0.9672
vn -0.7492 -0.0000 0.6624
vn -0.8802 -0.0000 -0.4746
vn -0.1009 -0.0000 -0.9949
vt 0.211191 0.694685
vt 0.312423 0.781784
vt 0.318316 0.653206
vt 0.267036 0.876891
vt 0.210901 0.982979
vt 0.154674 0.876467
vt 0.213419 0.877364
vt 0.537372 0.751304
vt 0.455011 0.751083
vt 0.537009 0.998865
vt 0.454885 0.998672
vt 0.391943 0.847484
vt 0.456727 0.751975
vt 0.537765 0.751975
vt 0.537063 0.998970
vt 0.456026 0.998970
vt 0.108827 0.770088
vt 0.103829 0.653162
vt 0.036009 0.848041
s 0
usemtl star
f 10/1/1 8/2/1 9/3/1
f 1/4/2 16/5/2 17/6/2 21/7/2
f 4/8/3 9/9/3 8/9/3 3/8/3
f 5/9/4 10/8/4 9/10/4 4/11/4
f 8/2/1 6/4/1 7/12/1
f 3/13/5 8/14/5 7/15/5 2/16/5
f 16/11/6 1/9/6 6/8/6 11/10/6
f 2/9/7 7/8/7 6/8/7 1/9/7
f 4/3/2 3/2/2 5/1/2
f 2/12/2 1/4/2 3/2/2
f 5/1/2 19/17/2 20/18/2
f 15/8/8 20/9/8 19/11/8 14/10/8
f 10/8/9 5/9/9 20/9/9 15/8/9
f 19/17/2 17/6/2 18/19/2
f 6/4/1 22/7/1 12/6/1 11/5/1
f 14/10/10 19/11/10 18/9/10 13/8/10
f 11/10/11 12/8/11 17/9/11 16/9/11
f 13/10/12 18/11/12 17/9/12 12/8/12
f 13/19/1 12/6/1 14/17/1
f 15/18/1 14/17/1 10/1/1
f 3/2/2 1/4/2 21/7/2 17/6/2 19/17/2 5/1/2
f 8/2/1 10/1/1 14/17/1 12/6/1 22/7/1 6/4/1
